<svg xmlns="http://www.w3.org/2000/svg" viewBox="0 0 40 40" width="40" height="40">
  <defs>
    <linearGradient id="gB" x1="0" y1="2.6" x2="0" y2="38" gradientUnits="userSpaceOnUse">
      <stop offset="0" stop-color="#9bd989"/>
      <stop offset="1" stop-color="#2c6f3d"/>
    </linearGradient>
  </defs>

  <!-- short connector stem -->
  <path d="M20 0V4" stroke="#2c6f3d" stroke-width="1.6" stroke-linecap="round" fill="none"/>

  <!-- wider, cordate top (pronounced notch) -->
  <path d="M19.7 6
           C17.0 0, 13.8 0.5, 9.5 3.4
           C2.0 7, 0.0 13.2, 3.6 20.2
           C7.0 29.2, 14.5 35.0, 22 40
           C25.5 35.0, 33.0 29.2, 35.4 21
           C38.0 13.2, 34.0 7.4, 28.2 3.4
           C25.2 1.4, 22.0 1.2, 20 3.6 Z"
        fill="url(#gB)" stroke="#1e5631" stroke-width="0.7" stroke-linejoin="round"/>

  <!-- midrib + veins -->
  <path d="M20 2.6
           C19 10, 19 25, 22 40
           M18.0 7.6  C13.8 9.6, 11.0 12.8, 10.0 16.4
           M22.2 11.2 C26.6 13.2, 29.6 16.2, 30.4 19.8"
        fill="none" stroke="#1e5631" stroke-width="0.8" stroke-linecap="round"/>
</svg>
